<svg width="115" height="37" viewBox="0 0 115 37" fill="none" xmlns="http://www.w3.org/2000/svg">
<rect x="78.2097" width="36.3559" height="36.3559" rx="18.178" fill="#AA3C3B"/>
<g clip-path="url(#clip0_382_1562)">
<path d="M100.415 18.8932C99.3408 17.2176 97.5115 16.217 95.5214 16.217C93.5312 16.217 91.7019 17.2176 90.628 18.8932L88.0397 22.9309C87.6103 23.6007 87.4122 24.3747 87.4666 25.1685C87.5211 25.9625 87.8232 26.7019 88.3402 27.3072C88.8576 27.912 89.5413 28.3254 90.3173 28.5028C91.0933 28.6802 91.8887 28.6044 92.6175 28.2841L92.6664 28.2624C94.5002 27.4724 96.5958 27.4797 98.425 28.2841C98.8968 28.4915 99.3967 28.5964 99.9012 28.5964C100.175 28.5964 100.451 28.5653 100.725 28.503C101.501 28.3258 102.184 27.9124 102.702 27.3074C103.219 26.7026 103.521 25.9631 103.576 25.1689C103.631 24.3747 103.433 23.6009 103.003 22.9307L100.415 18.8932Z" fill="white"/>
<path d="M88.7369 18.888C89.5069 18.5922 90.0918 17.9717 90.3839 17.1408C90.662 16.35 90.6392 15.4573 90.3196 14.6268C89.9998 13.797 89.4182 13.1195 88.6817 12.719C87.9081 12.2985 87.0581 12.23 86.2894 12.5263C84.7429 13.1209 84.0332 15.0321 84.7076 16.7874C85.2463 18.1846 86.5027 19.0666 87.7729 19.0666C88.0973 19.0666 88.4225 19.0091 88.7369 18.888Z" fill="white"/>
<path d="M93.7589 15.7245C95.6922 15.7245 97.2651 13.9325 97.2651 11.7298C97.2651 9.52662 95.6922 7.73425 93.7589 7.73425C91.8257 7.73425 90.253 9.52662 90.253 11.7298C90.253 13.9325 91.8257 15.7245 93.7589 15.7245Z" fill="white"/>
<path d="M99.8141 16.706H99.8143C100.112 16.8047 100.415 16.8519 100.717 16.8519C102.127 16.8519 103.501 15.8257 104.026 14.2486C104.327 13.3407 104.308 12.3808 103.97 11.5458C103.616 10.6717 102.961 10.0372 102.124 9.7591C101.287 9.48101 100.382 9.59702 99.5756 10.0854C98.8051 10.552 98.2146 11.3091 97.9131 12.2169C97.2766 14.132 98.1294 16.1458 99.8141 16.706V16.706Z" fill="white"/>
<path d="M107.198 16.2398L107.197 16.2393C105.864 15.2544 103.87 15.6813 102.752 17.1914C101.635 18.7022 101.81 20.7333 103.141 21.7189C103.627 22.0786 104.2 22.2505 104.788 22.2505C105.811 22.2505 106.875 21.7282 107.587 20.7677C108.704 19.2569 108.529 17.2258 107.198 16.2398V16.2398Z" fill="white"/>
</g>
<path d="M12.5912 7.53783C11.9496 7.53783 11.4328 7.37673 11.0407 7.05451C10.6664 6.7144 10.4793 6.26688 10.4793 5.71196C10.4793 4.90643 10.7466 4.25305 11.2813 3.75183C11.8159 3.25061 12.5021 3 13.3397 3C13.9813 3 14.4892 3.17006 14.8635 3.51017C15.2556 3.85028 15.4516 4.2978 15.4516 4.85273C15.4516 5.64036 15.1843 6.28478 14.6496 6.786C14.115 7.28722 13.4288 7.53783 12.5912 7.53783ZM7.19115 7.53783C6.54956 7.53783 6.04164 7.37673 5.66738 7.05451C5.29312 6.7144 5.10599 6.26688 5.10599 5.71196C5.10599 4.90643 5.37331 4.25305 5.90797 3.75183C6.44263 3.25061 7.12878 3 7.96641 3C8.608 3 9.11592 3.17006 9.49018 3.51017C9.88227 3.85028 10.0783 4.2978 10.0783 4.85273C10.0783 5.64036 9.80207 6.28478 9.24959 6.786C8.71493 7.28722 8.02878 7.53783 7.19115 7.53783ZM11.3882 23.192H19.221L18.6328 26.8706H9.59711L11.3882 23.192ZM7.53868 26.8706C5.22183 26.8706 3.38617 26.2531 2.0317 25.0179C0.677234 23.7827 0 22.0285 0 19.7551C0 17.8218 0.481192 16.1123 1.44358 14.6265C2.42378 13.1408 3.71587 11.9951 5.31985 11.1896C6.92382 10.3841 8.65255 9.98129 10.506 9.98129C12.0387 9.98129 13.3219 10.2408 14.3556 10.76C15.3892 11.2791 16.111 11.8877 16.5209 12.5858L14.4892 24.0513L12.6447 26.8706H7.53868ZM12.11 12.5321L12.2971 14.3043C12.2259 14.0716 12.0387 13.9105 11.7357 13.821C11.4328 13.7136 11.0229 13.6599 10.506 13.6599C9.29414 13.6599 8.22483 13.9194 7.29809 14.4386C6.38917 14.9398 5.67629 15.6648 5.15945 16.6135C4.64262 17.5622 4.3842 18.6721 4.3842 19.943C4.3842 21.1066 4.62479 21.939 5.10599 22.4402C5.58718 22.9414 6.39808 23.192 7.53868 23.192H10.7466L10.212 23.4337L12.11 12.5321ZM19.221 23.192C19.4883 23.192 19.6487 23.3442 19.7022 23.6485C19.7556 23.9528 19.7378 24.4182 19.6487 25.0448C19.5596 25.6355 19.4348 26.083 19.2744 26.3873C19.114 26.7095 18.9002 26.8706 18.6328 26.8706L19.221 23.192Z" fill="#AA3C3B"/>
<path d="M19.2362 23.192H23.8075L22.364 24.642V23.1383C22.364 22.5655 22.4263 21.9658 22.5511 21.3393C22.6758 20.6949 22.8362 20.0057 23.0323 19.2718C23.2461 18.4125 23.4065 17.6786 23.5135 17.07C23.6204 16.4435 23.6739 15.8617 23.6739 15.3247C23.6739 14.8771 23.6293 14.4565 23.5402 14.0627C23.4689 13.6509 23.362 13.3108 23.2194 13.0423C23.8432 12.7201 24.4669 12.4605 25.0907 12.2636C25.7145 12.0667 26.267 11.9683 26.7482 11.9683C27.3541 11.9683 27.7907 12.1294 28.0581 12.4516C28.3254 12.7559 28.4591 13.2124 28.4591 13.821C28.4591 14.2506 28.4056 14.7071 28.2987 15.1904C28.1917 15.6737 28.0313 16.3629 27.8175 17.2579C27.6036 18.0993 27.4343 18.7974 27.3095 19.3523C27.2026 19.8893 27.1492 20.3906 27.1492 20.856C27.1492 21.6078 27.3274 22.1896 27.6838 22.6013C28.0402 22.9951 28.5571 23.192 29.2343 23.192H31.1056L30.5175 26.8706H28.1115C27.3274 26.8706 26.7303 26.6648 26.3204 26.2531C25.9283 25.8413 25.6967 25.2148 25.6254 24.3735L26.7482 25.4744H25.6254L24.7165 26.8706H18.6481L19.2362 23.192ZM31.1324 23.192C31.3819 23.192 31.5333 23.3442 31.5868 23.6485C31.6581 23.9528 31.6492 24.4182 31.5601 25.0448C31.4531 25.6355 31.3195 26.083 31.1591 26.3873C30.9987 26.7095 30.7848 26.8706 30.5175 26.8706L31.1324 23.192ZM18.6481 26.8706C18.3808 26.8706 18.2204 26.7095 18.1669 26.3873C18.0956 26.083 18.1134 25.6265 18.2204 25.0179C18.3095 24.4093 18.4342 23.9528 18.5946 23.6485C18.755 23.3442 18.9689 23.192 19.2362 23.192L18.6481 26.8706ZM22.8719 33.5566C22.2303 33.5566 21.7224 33.3865 21.3481 33.0464C20.9738 32.7242 20.7867 32.2945 20.7867 31.7575C20.7867 30.9341 21.054 30.2718 21.5887 29.7705C22.1234 29.2693 22.8095 29.0187 23.6471 29.0187C24.2887 29.0187 24.7967 29.1888 25.1709 29.5289C25.563 29.869 25.759 30.3165 25.759 30.8714C25.759 31.677 25.4828 32.3214 24.9303 32.8047C24.3957 33.3059 23.7095 33.5566 22.8719 33.5566Z" fill="#AA3C3B"/>
<path d="M31.1407 23.192H36.0863L34.5893 23.7559C34.6605 22.5386 34.8388 21.2498 35.1239 19.8893C35.4091 18.5289 35.7388 17.0968 36.113 15.5932C36.1665 15.3963 36.211 15.2262 36.2467 15.083C36.3002 14.9219 36.3358 14.7697 36.3536 14.6265L36.4071 15.9959L34.6962 13.6599C35.3734 13.1587 36.1041 12.7559 36.8883 12.4516C37.6724 12.1473 38.4121 11.9951 39.1071 11.9951C39.7131 11.9951 40.1586 12.1294 40.4438 12.3979C40.7289 12.6664 40.8715 13.0692 40.8715 13.6062C40.8715 13.8747 40.8091 14.2954 40.6844 14.8682C40.5596 15.441 40.4259 16.0675 40.2834 16.7478C39.9091 18.3409 39.6061 19.7103 39.3744 20.856C39.1428 22.0016 39.0002 23.0757 38.9467 24.0781L37.1289 26.8706H30.5526L31.1407 23.192ZM30.5526 26.8706C30.2853 26.8706 30.1249 26.7095 30.0714 26.3873C30.0001 26.083 30.0179 25.6265 30.1249 25.0179C30.214 24.4093 30.3387 23.9528 30.4991 23.6485C30.6595 23.3442 30.8734 23.192 31.1407 23.192L30.5526 26.8706ZM37.3427 33.5566C36.7012 33.5566 36.1932 33.3865 35.819 33.0464C35.4447 32.7242 35.2576 32.2856 35.2576 31.7307C35.2576 30.943 35.5249 30.2897 36.0596 29.7705C36.5942 29.2693 37.2804 29.0187 38.118 29.0187C38.7596 29.0187 39.2675 29.1888 39.6418 29.5289C40.0339 29.869 40.2299 30.3165 40.2299 30.8714C40.2299 31.677 39.9537 32.3214 39.4012 32.8047C38.8665 33.3059 38.1804 33.5566 37.3427 33.5566ZM31.9694 33.5566C31.3278 33.5566 30.8199 33.3865 30.4457 33.0464C30.0536 32.7242 29.8575 32.2856 29.8575 31.7307C29.8575 30.943 30.1249 30.2897 30.6595 29.7705C31.1942 29.2693 31.8803 29.0187 32.7179 29.0187C33.3595 29.0187 33.8764 29.1888 34.2685 29.5289C34.6605 29.869 34.8566 30.3165 34.8566 30.8714C34.8566 31.677 34.5803 32.3214 34.0279 32.8047C33.4932 33.3059 32.8071 33.5566 31.9694 33.5566Z" fill="#AA3C3B"/>
<path d="M43.4347 36C41.902 36 40.7169 35.7315 39.8792 35.1945C39.0238 34.6753 38.5961 34.0041 38.5961 33.1806C40.4852 33.1806 41.9911 32.9121 43.1139 32.3751C44.2367 31.856 45.0832 31.0952 45.6535 30.0928C46.2238 29.1082 46.6694 27.7836 46.9902 26.1188C47.0437 25.8682 47.0882 25.6086 47.1239 25.3401C47.1773 25.0537 47.2308 24.7583 47.2843 24.454C47.6407 22.4491 48.1041 19.5134 48.6744 15.6469L48.8348 17.3922L47.2041 13.6062C48.0239 13.0513 48.7635 12.6395 49.4229 12.371C50.0823 12.1025 50.6882 11.9683 51.2407 11.9683C51.8823 11.9683 52.3902 12.1294 52.7645 12.4516C53.1388 12.7559 53.3259 13.1587 53.3259 13.6599C53.3259 13.8926 53.21 14.7429 52.9784 16.2107C52.7645 17.6786 52.4704 19.6029 52.0962 21.9837L51.7486 24.1587C51.3031 27.0228 50.7417 29.3141 50.0645 31.0325C49.3872 32.751 48.514 34.0041 47.4446 34.7917C46.3932 35.5972 45.0565 36 43.4347 36Z" fill="#AA3C3B"/>
<path d="M55.5742 36C54.0415 36 52.8563 35.7315 52.0187 35.1945C51.1632 34.6753 50.7355 34.0041 50.7355 33.1806C52.6246 33.1806 54.1306 32.9121 55.2534 32.3751C56.3762 31.856 57.2227 31.0952 57.793 30.0928C58.3633 29.1082 58.8088 27.7836 59.1296 26.1188C59.1831 25.8682 59.2277 25.6086 59.2633 25.3401C59.3168 25.0537 59.3702 24.7583 59.4237 24.454C59.7801 22.4491 60.2435 19.5134 60.8138 15.6469L60.9742 17.3922L59.3435 13.6062C60.1633 13.0513 60.9029 12.6395 61.5623 12.371C62.2218 12.1025 62.8277 11.9683 63.3802 11.9683C64.0218 11.9683 64.5297 12.1294 64.904 12.4516C65.2782 12.7559 65.4653 13.1587 65.4653 13.6599C65.4653 13.8926 65.3495 14.7429 65.1178 16.2107C64.904 17.6786 64.6099 19.6029 64.2356 21.9837L63.8881 24.1587C63.4426 27.0228 62.8812 29.3141 62.2039 31.0325C61.5267 32.751 60.6534 34.0041 59.5841 34.7917C58.5326 35.5972 57.196 36 55.5742 36ZM63.1128 9.55167C62.4713 9.55167 61.9544 9.39056 61.5623 9.06835C61.1881 8.72824 61.001 8.28072 61.001 7.72579C61.001 6.93816 61.2683 6.29373 61.8029 5.79251C62.3376 5.27339 63.0237 5.01383 63.8614 5.01383C64.503 5.01383 65.0198 5.18389 65.4119 5.524C65.804 5.86412 66 6.31164 66 6.86656C66 7.67209 65.7238 8.32547 65.1713 8.82669C64.6366 9.31001 63.9505 9.55167 63.1128 9.55167Z" fill="#AA3C3B"/>
<defs>
<clipPath id="clip0_382_1562">
<rect width="23.8701" height="23.8701" fill="white" transform="translate(84.4526 6.24243)"/>
</clipPath>
</defs>
</svg>
